# xmcd
#
# Track frame offsets: 
#        150
#        19235
#        31734
#        48764
#        65483
#        87204
#        109271
#        123277
#        144637
#        164183
#        193754
#        211825
#
# Disc length: 3077 seconds
#
# Revision: 0
# Processed by: cddbd v1.5.2PL0 Copyright (c) Steve Scherf et al.
# Submitted via: ExactAudioCopy v0.99pb3
#
DISCID=a70c030c
DTITLE=Travis 'Moonchild' Haddix - If I'm One You're One Too
DYEAR=2009
DGENRE=Blues
TTITLE0=Scared Half To Death, Twice
TTITLE1=Clean Out Of Love
TTITLE2=Dollar's Worth Of Gas
TTITLE3=A Little Snack
TTITLE4=Getting Old, The Alternative
TTITLE5=Can't Get You Back
TTITLE6=If I'm One, You're One Too
TTITLE7=Lump In My Throat
TTITLE8=Hard To Teach, Hard To Learn
TTITLE9=Don't Get Too Comfortable
TTITLE10=Who Are You Asking
TTITLE11=It's Rooster Again
EXTD=
EXTT0=
EXTT1=
EXTT2=
EXTT3=
EXTT4=
EXTT5=
EXTT6=
EXTT7=
EXTT8=
EXTT9=
EXTT10=
EXTT11=
PLAYORDER=
